<?xml version="1.0" encoding="utf-8"?>
<!-- Generator: Adobe Illustrator 22.1.0, SVG Export Plug-In . SVG Version: 6.00 Build 0)  -->
<svg version="1.1" id="Layer_1" xmlns="http://www.w3.org/2000/svg" xmlns:xlink="http://www.w3.org/1999/xlink" x="0px" y="0px"
	 viewBox="0 0 259.4 156.4" style="enable-background:new 0 0 259.4 156.4;" xml:space="preserve">
<style type="text/css">
	.st0{stroke:#000000;stroke-width:0.513;}
	.st1{stroke:#000000;stroke-width:0.4989;}
	.st2{stroke:#000000;stroke-width:0.3933;}
</style>
<g>
	<path class="st0" d="M136.6,37.7c14.9,0,19.1,9.8,19.1,17.5c0,8.1-4.8,17.5-18.6,17.5h-12.7v-35H136.6z M127.1,70.5h9.9
		c8.4,0,15.9-5.4,15.9-15.3c0-9-6.5-15.3-16-15.3h-9.7V70.5z"/>
	<path class="st0" d="M177.3,68.9h-0.1c-2.1,3-4,4.3-7.6,4.3c-4,0-8.6-2.4-8.6-9.2V49.7h2.5v14.2c0,4.7,2.9,6.9,6.3,6.9
		c3.6,0,5.5-1.8,7.5-4.9V49.7h2.5v23.1h-2.5V68.9z"/>
	<path class="st0" d="M204.5,72.7H202v-1.8c-2.5,1.7-4.2,2.3-6.8,2.3c-6.6,0-11.7-5.2-11.7-12c0-6.9,4.9-12,11.7-12
		c2.4,0,4,0.5,6.8,1.8V37.7h2.5V72.7z M202,53.8c-2.5-1.6-4.3-2.2-6.7-2.2c-5.3,0-9.1,3.9-9.1,9.4c0,5.6,4.1,9.8,9.7,9.8
		c2.3,0,3.9-0.5,6.2-2.1V53.8z"/>
	<path class="st0" d="M212.1,72.7h-2.5v-35h2.5V72.7z"/>
	<path class="st0" d="M218.9,60.3c-0.7,5.9,4,10.4,9.2,10.4c3.1,0,5.6-1,8.6-3.4v2.8c-2.7,2.1-5.5,3.1-8.9,3.1
		c-6.7,0-11.5-5.1-11.5-12.3c0-6.8,4.5-11.7,10.6-11.7c4.9,0,10.2,3.4,10.2,11.1H218.9z M234.1,58.3c-0.9-4.5-3.3-6.7-7.3-6.7
		c-3.8,0-6.8,2.5-7.7,6.7H234.1z"/>
	<path class="st0" d="M241.7,84.5h-2.5l8.1-16.3l-9.7-18.6h2.6l8.4,16.1l8-16.1h2.5L241.7,84.5z"/>
</g>
<g>
	<path class="st1" d="M152.5,83c-4.2-2.2-8.1-3.3-12.1-3.3c-8.5,0-14.8,6.4-14.8,15c0,8.8,6.3,14.9,15.2,14.9c3.8,0,7.5-1,12.1-3.5
		v2.7c-3.9,2.1-8.1,3.2-12,3.2c-10.4,0-18.1-7.4-18.1-17.4c0-10.4,8.5-17.5,17.8-17.5c3.8,0,7.8,0.9,11.9,2.8V83z"/>
	<path class="st1" d="M166,112.1c-6.5,0-11.4-5-11.4-11.6c0-6.7,4.9-11.6,11.4-11.6s11.3,5,11.3,11.6
		C177.3,107.1,172.5,112.1,166,112.1z M166,91.2c-5.1,0-8.9,3.9-8.9,9.3c0,5.3,3.8,9.3,8.9,9.3c5,0,8.8-3.9,8.8-9.3
		C174.8,95.2,171,91.2,166,91.2z"/>
	<path class="st1" d="M183.8,111.6h-2.4V77.7h2.4V111.6z"/>
	<path class="st1" d="M191.7,111.6h-2.4V77.7h2.4V111.6z"/>
	<path class="st1" d="M198.2,99.7c-0.7,5.7,3.8,10.1,8.9,10.1c3,0,5.4-1,8.3-3.3v2.7c-2.6,2-5.4,3-8.6,3c-6.5,0-11.1-5-11.1-11.9
		c0-6.6,4.3-11.3,10.3-11.3c4.8,0,9.9,3.3,9.9,10.8H198.2z M213,97.7c-0.8-4.4-3.2-6.5-7.1-6.5c-3.7,0-6.6,2.4-7.4,6.5H213z"/>
	<path class="st1" d="M236.8,91.2h-5.1c2.1,2,3.1,3.7,3.1,5.9c0,10-12.7,6.7-12.7,11c0,4.9,14.6-1.1,14.6,8.4c0,4.1-3.7,6.5-10,6.5
		c-6.9,0-9.8-2.8-9.8-6c0-2.8,2.3-4.8,6.5-5.4v-0.1c-2.4-0.5-3.6-1.6-3.6-3.2c0-2,1.8-2.8,4.5-3.6v-0.1c-4.5-1.3-6-4.7-6-7.4
		c0-3.7,2.3-8,9.5-8h9V91.2z M227.3,112.8c-2.8,0-8.1,0.4-8.1,4.1c0,2.6,2.7,4.1,7.7,4.1c4.6,0,7.6-1.7,7.6-4.3
		C234.5,113.6,231.4,112.8,227.3,112.8z M226.5,91.3c-3.3,0-5.9,2.6-5.9,5.8c0,3.3,2.5,6.1,5.9,6.1c3.3,0,6-2.7,6-6
		C232.5,93.9,229.8,91.3,226.5,91.3z"/>
	<path class="st1" d="M240.3,99.7c-0.7,5.7,3.8,10.1,8.9,10.1c3,0,5.4-1,8.3-3.3v2.7c-2.6,2-5.4,3-8.6,3c-6.5,0-11.1-5-11.1-11.9
		c0-6.6,4.3-11.3,10.3-11.3c4.8,0,9.9,3.3,9.9,10.8H240.3z M255.1,97.7c-0.8-4.4-3.2-6.5-7.1-6.5c-3.7,0-6.6,2.4-7.4,6.5H255.1z"/>
</g>
<g>
	<path class="st2" d="M129.3,141.5c-3.3,0-5.7-2.5-5.7-5.8c0-3.3,2.4-5.8,5.7-5.8c3.3,0,5.7,2.5,5.7,5.8
		C135,139,132.6,141.5,129.3,141.5z M129.3,131c-2.5,0-4.4,2-4.4,4.7c0,2.7,1.9,4.6,4.4,4.6c2.5,0,4.4-2,4.4-4.6
		S131.8,131,129.3,131z"/>
	<path class="st2" d="M144.4,125.6c-0.9-0.3-1.4-0.4-2-0.4c-1.9,0-2.7,1.1-2.7,3.5v1.4h2.2v1h-2.2v10.2h-1.2V131h-2.1v-1h2.1v-1.8
		c0-2.9,2-4.2,3.9-4.2c0.7,0,1.2,0.1,2,0.5V125.6z"/>
	<path class="st2" d="M159.9,125.4h-6.4v15.9h-1.3v-15.9h-6.4v-1.1h14.1V125.4z"/>
	<path class="st2" d="M159.1,135.3c-0.3,2.9,1.9,5.1,4.5,5.1c1.5,0,2.7-0.5,4.2-1.7v1.3c-1.3,1-2.7,1.5-4.3,1.5
		c-3.2,0-5.6-2.5-5.6-6c0-3.3,2.2-5.7,5.1-5.7c2.4,0,5,1.7,5,5.4H159.1z M166.5,134.3c-0.4-2.2-1.6-3.3-3.5-3.3
		c-1.8,0-3.3,1.2-3.7,3.3H166.5z"/>
	<path class="st2" d="M178.3,131.7c-1.3-0.5-2-0.7-2.9-0.7c-2.5,0-4.2,1.9-4.2,4.7c0,2.8,1.7,4.6,4.3,4.6c1,0,1.8-0.2,3-0.6v1.2
		c-1.3,0.4-2.1,0.6-3.1,0.6c-3.3,0-5.5-2.3-5.5-5.7c0-3.5,2.2-6,5.4-6c1,0,1.7,0.2,3,0.5V131.7z"/>
	<path class="st2" d="M182.1,132L182.1,132c1.1-1.6,2.1-2.2,3.7-2.2c2.4,0,4.2,1.6,4.2,4.6v6.9h-1.2v-6.4c0-2.4-0.9-3.9-3-3.9
		c-1.6,0-2.6,0.8-3.7,2.4v7.9h-1.2v-17h1.2V132z"/>
	<path class="st2" d="M194.4,132L194.4,132c1.1-1.6,2.1-2.2,3.7-2.2c2.4,0,4.2,1.6,4.2,4.6v6.8h-1.2v-6.4c0-2.5-1.1-3.9-3-3.9
		c-1.6,0-2.7,0.8-3.7,2.4v7.9h-1.2v-11.2h1.2V132z"/>
	<path class="st2" d="M210.7,141.5c-3.3,0-5.7-2.5-5.7-5.8c0-3.3,2.4-5.8,5.7-5.8c3.3,0,5.7,2.5,5.7,5.8
		C216.4,139,214,141.5,210.7,141.5z M210.7,131c-2.5,0-4.4,2-4.4,4.7c0,2.7,1.9,4.6,4.4,4.6c2.5,0,4.4-2,4.4-4.6
		S213.2,131,210.7,131z"/>
	<path class="st2" d="M220.5,141.3h-1.2v-17h1.2V141.3z"/>
	<path class="st2" d="M229.1,141.5c-3.3,0-5.7-2.5-5.7-5.8c0-3.3,2.4-5.8,5.7-5.8c3.3,0,5.7,2.5,5.7,5.8
		C234.8,139,232.3,141.5,229.1,141.5z M229.1,131c-2.5,0-4.4,2-4.4,4.7c0,2.7,1.9,4.6,4.4,4.6c2.5,0,4.4-2,4.4-4.6
		S231.6,131,229.1,131z"/>
	<path class="st2" d="M246.3,131h-2.5c1.1,1,1.5,1.8,1.5,3c0,5-6.4,3.4-6.4,5.5c0,2.4,7.3-0.5,7.3,4.2c0,2-1.9,3.3-5,3.3
		c-3.4,0-4.9-1.4-4.9-3c0-1.4,1.2-2.4,3.3-2.7v-0.1c-1.2-0.3-1.8-0.8-1.8-1.6c0-1,0.9-1.4,2.2-1.8v-0.1c-2.2-0.6-3-2.4-3-3.7
		c0-1.9,1.2-4,4.8-4h4.5V131z M241.6,141.9c-1.4,0-4.1,0.2-4.1,2.1c0,1.3,1.4,2.1,3.8,2.1c2.3,0,3.8-0.8,3.8-2.2
		C245.1,142.3,243.6,141.9,241.6,141.9z M241.1,131.1c-1.7,0-2.9,1.3-2.9,2.9c0,1.7,1.3,3,3,3c1.6,0,3-1.3,3-3
		S242.8,131.1,241.1,131.1z"/>
	<path class="st2" d="M248.8,147h-1.2l3.9-7.9l-4.7-9h1.2l4.1,7.8l3.9-7.8h1.2L248.8,147z"/>
</g>
<path d="M55.2,66.9c0,0-65.2,15.6,3.9,37.7c0,0,25,7.3,52.7,2.9c0,0-39.9,13.9-92.6-4.4c0,0-32.3-10.7-4.7-27.2
	C14.6,75.9,25.6,68.1,55.2,66.9"/>
<path d="M130.7,7.9c-1.8-3.5-4.6-5.9-8.5-7.2c-3.7-1.2-7.4-0.9-11,0.9c-3.5,1.8-5.9,4.5-7.2,8.3c-1.2,3.8-0.8,7.5,1,11
	c1.8,3.5,4.6,5.9,8.4,7.1c3.9,1.2,7.5,1,11-0.9c3.6-1.8,6-4.6,7.1-8.4C132.9,15.1,132.5,11.4,130.7,7.9"/>
<path d="M55.2,66.9c0,0-65.2,15.6,3.9,37.7c0,0,25,7.3,52.7,2.9c0,0-39.9,13.9-92.6-4.4c0,0-32.3-10.7-4.7-27.2
	C14.6,75.9,25.6,68.1,55.2,66.9"/>
<path d="M0,156.4c21.9-8.5,48.6-27.9,61.5-37.8c-4.3-0.3-8.8-0.7-13.5-1.4C30.4,133.9,0,156.4,0,156.4z"/>
<g>
	<path d="M80,103.2c21.4-20.9,27.3-41.8,27.3-41.8C117.9,25.6,78,36.9,78,36.9C48.4,43.9,28.6,60,28.6,60C62,41,75,57.2,75,57.2
		c8.3,13-3.9,32.3-11.4,42.1c1.3,0.4,2.5,0.9,3.9,1.3C67.6,100.6,72.3,102,80,103.2z"/>
</g>
</svg>
